<svg xmlns="http://www.w3.org/2000/svg" fill="none" viewBox="0 0 128 128">
    <path d="M80.5745 39.9866C77.3011 33.3929 72.5867 28.3293 66.4349 24.8104C60.2819 21.2623 52.9 19.5 44.3102 19.5H16H15.5V20V107.318V107.818H16H43.1092C52.0958 107.818 59.7626 106.057 66.0877 102.51L66.0892 102.509C72.4117 98.9342 77.2279 93.8285 80.5314 87.2037L80.5318 87.203C83.8334 80.5534 85.4739 72.6429 85.4739 63.4884C85.4739 54.3911 83.8478 46.5515 80.5745 39.9866ZM80.5745 39.9866C80.5745 39.9865 80.5744 39.9863 80.5743 39.9862L80.1269 40.2093L80.5747 39.987C80.5747 39.9868 80.5746 39.9867 80.5745 39.9866ZM70.7494 45.4892L70.7498 45.4901C73.0298 50.4983 74.1793 56.4927 74.1793 63.4884C74.1793 70.5406 73.0156 76.5918 70.707 81.657C68.4039 86.7099 64.9136 90.5956 60.2294 93.3278C55.5507 96.0568 49.6248 97.438 42.4228 97.438H27.1378V29.8798H43.6239C50.4213 29.8798 56.0601 31.2451 60.5676 33.9445L60.5695 33.9456C65.0808 36.6193 68.4732 40.4614 70.7494 45.4892ZM107.396 107.406L107.399 107.404C108.64 106.652 109.628 105.656 110.356 104.42C111.119 103.176 111.5 101.807 111.5 100.326C111.5 98.0867 110.687 96.1549 109.079 94.5562C107.471 92.9577 105.529 92.1512 103.279 92.1512C101.029 92.1512 99.0872 92.9577 97.479 94.5562C95.8707 96.1549 95.0581 98.0867 95.0581 100.326C95.0581 102.564 95.8707 104.496 97.479 106.095C99.0872 107.693 101.029 108.5 103.279 108.5C104.792 108.5 106.169 108.138 107.396 107.406Z" />
    <style>
        path { fill: #000; }
        @media (prefers-color-scheme: dark) {
            path { fill: #FFF; }
        }
    </style>
</svg>
